<svg xmlns="http://www.w3.org/2000/svg" width="1024" height="1024" viewBox="0 0 512 512"><path d="M85 65c5.917-.012 11.834-.019 17.751-.025l5.044-.01c12.31-.01 24.54.335 36.834.969 29.568 1.379 59.15 1.702 88.745 2.07 6.188.08 12.375.163 18.562.247 32.832.441 65.664.804 98.498 1.061l4.35.035c13.709.107 27.417.207 41.126.288 4.955.03 9.91.063 14.865.097 3.387.021 6.775.037 10.162.053l6.02.041 5.253.03C436 70 436 70 437 71c.48 13.188-.26 26.391-.875 39.563-1.024 22.861-1.496 45.727-1.945 68.606-1.084 54.783-1.084 54.783-2.618 79.081l-.333 5.325c-1.22 17.236-3.472 34.353-7.166 51.238l-.725 3.517c-1.683 7.818-3.85 14.938-8.338 21.67h-2v2c-20.243 12.146-41.921 17.333-65.137 19.473-4.149.407-4.149.407-8.863 2.527-1.208 2.957-1.208 2.957-1.688 6.563l-.699 4.07c-.812 5.784-1.455 11.578-1.988 17.394-.675 4.292-1.976 7.964-3.625 11.973 25.382-9.825 63.117-28.234 76-54h2c.025 7.522.043 15.043.055 22.565.005 2.551.012 5.103.02 7.654.136 40.57.136 40.57-2.075 42.781-2.18.094-4.361.116-6.542.112l-4.274-.004-4.704-.02-4.897-.012c-18.757-.06-37.511-.264-56.267-.478l-11.524-.128c-8.016-.088-16.033-.178-24.05-.27-10.05-.114-20.1-.225-30.15-.336-36.14-.398-72.282-.806-108.422-1.308l-8.418-.114c-20.258-.27-40.503-.796-60.752-1.442-1.16-7.379-1.153-14.65-1.158-22.098l-.015-4.302c-.016-4.756-.024-9.513-.032-14.27l-.03-10.23c-.027-9.26-.048-18.519-.068-27.779-.022-9.676-.05-19.352-.076-29.028-.045-16.241-.085-32.482-.124-48.724-.04-16.727-.08-33.454-.125-50.181l-.008-3.126-.041-15.523C85.209 150.826 85.103 107.913 85 65Zm36 30c-.434 3.826-.605 7.373-.61 11.207l-.05 3.452c-.05 3.718-.07 7.435-.09 11.153-.027 2.557-.055 5.113-.085 7.67-.068 6.135-.112 12.271-.146 18.407-.024 3.9-.064 7.8-.105 11.7-.087 11.57.138 23.125.437 34.69.618 24.1.858 48.19.965 72.295l.063 11.923c.05 9.256.095 18.512.138 27.769.05 10.571.105 21.143.16 31.714.113 21.674.22 43.347.323 65.02 37.522 1.607 37.522 1.607 75.063 2.625l5.89.113c31.184.567 62.349.334 93.484-1.675l3.583-.227c15.356-.394 15.356-.394 28.98-5.836 1.76-5.025 2.423-9.905 2.938-15.188 2.308-19.94 2.308-19.94 7.484-22.511 5.212-1.481 10.35-2.4 15.703-3.238 8.85-1.46 17.344-3.287 25.875-6.063l4.426-1.375c19.689-5.28 19.689-5.28 31.63-19.68.942-4.937 1.498-9.742 1.909-14.75l.481-5.82c.165-2.084.328-4.167.491-6.25l.258-3.22c1.356-17.02 2.522-34.05 3.555-51.092l.197-3.152c1.47-23.823.929-46.929-1.026-70.68-1.867-22.7-3.57-45.28-3.38-68.072l-.01-4.417.05-3.77L419 95c-4.177-.835-7.468-1.119-11.675-1.106l-4.109.005-4.495.02-4.752.01c-3.423.006-6.845.014-10.267.024-9.334.027-18.668.035-28.003.043l-5.908.006c-20.816.012-41.631-.093-62.447-.22l-5.584-.034c-11.202-.068-22.403-.14-33.605-.212-15.165-.097-30.33-.19-45.495-.284-5.178-.032-10.356-.066-15.535-.1-7.834-.05-15.669-.09-23.504-.126-4.805-.027-9.61-.068-14.416-.11l-9.348-.055-4.366-.048-4.009-.016-3.514-.028c-3.267.067-3.267.067-6.968 2.231Z"/><path d="M387.563 108.938 395 109v16h-16c-.136-16.136-.136-16.136 8.563-16.063ZM161 113v16h-15c-.136-16.136-.136-16.136 15-16ZM281.727 196.86 287 198c1.13 4.517.627 6.31-.59 10.738l-1.115 4.124-1.233 4.45c-.844 3.117-1.688 6.235-2.53 9.352l-1.298 4.767c-1.775 6.572-3.479 13.162-5.171 19.756l-.962 3.719a2609.93 2609.93 0 0 0-5.683 22.457l-1.342 5.35c-.867 3.458-1.726 6.918-2.576 10.381l-1.203 4.781-1.052 4.242c-1.316 4.106-2.7 7.394-5.245 10.883-4.813-.563-4.813-.563-9-3 .182-5.225 1.423-10.13 2.75-15.172l1.08-4.145 1.17-4.433c.824-3.159 1.647-6.317 2.469-9.477l1.277-4.907c1.588-6.163 3.122-12.339 4.646-18.518 1.105-4.462 2.234-8.917 3.366-13.371 1.564-6.175 3.018-12.365 4.422-18.579.73-3.05 1.462-6.099 2.195-9.148l.916-4.348c2.399-9.641 2.399-9.641 9.436-11.043ZM339.77 218.063c4.06 1.178 5.91 2.983 8.918 5.937 4.662 4.456 9.42 8.62 14.437 12.668a681.593 681.593 0 0 1 9.813 8.144l3.214 2.708C383 253.484 383 253.484 383 256a382.545 382.545 0 0 1-6.898 5.54c-5.85 4.64-11.447 9.585-17.102 14.46-3.711 3.169-7.423 6.337-11.137 9.504A117.54 117.54 0 0 0 342 291c-4.38.093-5.59-.494-8.375-3.938C332 284 332 284 332 282c2.075-1.749 4.212-3.423 6.375-5.063a226.827 226.827 0 0 0 15.293-12.855c3.624-3.236 7.461-6.148 11.332-9.082-3.547-3.638-7.236-6.982-11.125-10.25l-3.45-2.898a1448.235 1448.235 0 0 0-12.034-9.903A815.769 815.769 0 0 1 330 225c7-7 7-7 9.77-6.938ZM202 219c3.2 2.72 5.473 5.63 8 9-6.455 5.996-13.016 11.62-20 17a528.442 528.442 0 0 0-7.188 5.688l-3.48 2.761L177 256c1.5 4 1.5 4 4 5v2l4 2c8 5.647 8 5.647 8 8l4 2a160.95 160.95 0 0 1 6.375 5.375l3.336 2.898L209 286c-1.768 3.537-3.218 6.218-6 9l-6-3v-2l-4-2a217.787 217.787 0 0 1-6.063-5.063c-4.19-3.594-8.396-7.15-12.687-10.625-14.045-11.49-14.045-11.49-15.25-16.312 1.813-2.188 1.813-2.188 5-5l2.176-2.004c5.122-4.698 10.405-9.15 15.808-13.52 4.756-3.905 9.396-7.943 14.047-11.972C199 221 199 221 202 219Z"/></svg>