<?xml version="1.0" encoding="UTF-8"?>
<!-- Generated by Pixelmator Pro 3.3.13 -->
<svg width="716" height="716" viewBox="0 0 716 716" xmlns="http://www.w3.org/2000/svg">
    <path id="body" fill="#000000" fill-rule="evenodd" stroke="none" d="M 0 0 L 0 716 L 649 716 L 649 579 C 654 579 575.2 671.5 508.5 678.3 C 503.3 678.8 499 677 495.3 669.8 C 335 692 302 691 67 661 L 67 55 L 716 55 L 716 0"/>
    <path id="right-side" fill="#000000" fill-rule="evenodd" stroke="none" d="M 649 55 L 716 55 C 716 57 698.8 512.8 665 551 C 631.2 589.2 538 581 524 605 C 504.6 618.6 510.4 666.2 508.5 678.3 C 503.3 678.8 499 677 495.3 669.8 C 501.8 656.2 500 610.3 511 593 C 529.7 563.6 634.3 576.3 651 531 C 689 372 670 93 649 55"/>
    <path id="path1" fill="#000000" fill-rule="evenodd" stroke="none" d="M 457.5 330.625 L 537.125 367.5 L 537.125 370 L 457.5 406.875 L 457.5 445.75 L 574 383.875 L 574 353.625 L 457.5 291.625 Z M 331.625 476.5 L 417.375 241.125 L 382.25 241.125 L 297.375 476.5 Z M 257.5 330.625 L 257.5 291.625 L 141 353.625 L 141 383.875 L 257.5 445.75 L 257.5 406.875 L 177.75 370 L 177.75 367.5 Z"/>
    <path id="left-rectangle" fill="#000000" fill-rule="evenodd" stroke="none" d="M 117 132 L 153 132 L 153 96 L 117 96 Z"/>
    <path id="right-rectangle" fill="#000000" fill-rule="evenodd" stroke="none" d="M 589 132 L 625 132 L 625 96 L 589 96 Z"/>
</svg>
