<svg xmlns="http://www.w3.org/2000/svg" xmlns:xlink="http://www.w3.org/1999/xlink" version="1.1" x="0px" y="0px" viewBox="0 0 100 96.32875" enable-background="new 0 0 100 77.063" xml:space="preserve"><path d="M99.276,61.623C86.663,47.747,86.507,3.225,86.507,2.778C86.507,1.244,85.263,0,83.729,0H13.572  c-0.71,0-1.358,0.267-1.85,0.705c-0.002,0-0.002,0.001-0.002,0.003c-0.039,0.034-0.076,0.069-0.112,0.106L0.814,11.607  C0.293,12.128,0,12.835,0,13.571V74.28c0,0.015,0,0.029,0,0.044c0,0.002,0,0.002,0,0.002c0,0.001,0,0.001,0,0.003  c0.006,0.359,0.08,0.702,0.21,1.016c0.135,0.329,0.337,0.638,0.604,0.904c0.264,0.265,0.568,0.464,0.893,0.6  c0.33,0.139,0.691,0.215,1.071,0.215h80.555c1.534,0,2.777-1.244,2.777-2.778v-8.016h0.317h10.794c1.101,0,2.096-0.648,2.541-1.655  C100.207,63.609,100.018,62.436,99.276,61.623z M16.35,47.618c1.394,4.868,3.148,9.375,5.329,13.096H16.35V47.618z M5.556,14.722  l5.238-5.238v52.857l-5.238,5.237V14.722z M80.556,71.507H9.484l5.237-5.238h12.341h53.493V71.507z M86.428,60.713H28.344  C18.263,48.113,16.654,15.318,16.397,5.556h64.592c0.215,9.346,1.622,39.436,10.825,55.158H86.428z"/><text x="0" y="92.063" fill="#000000" font-size="5px" font-weight="bold" font-family="'Helvetica Neue', Helvetica, Arial-Unicode, Arial, Sans-serif">Created by Matt Brooks</text><text x="0" y="97.063" fill="#000000" font-size="5px" font-weight="bold" font-family="'Helvetica Neue', Helvetica, Arial-Unicode, Arial, Sans-serif">from the Noun Project</text></svg>